<?xml version="1.0" encoding="UTF-8" standalone="no"?>
<!-- Created with Inkscape (http://www.inkscape.org/) -->

<svg
   xmlns:dc="http://purl.org/dc/elements/1.1/"
   xmlns:cc="http://creativecommons.org/ns#"
   xmlns:rdf="http://www.w3.org/1999/02/22-rdf-syntax-ns#"
   xmlns:svg="http://www.w3.org/2000/svg"
   xmlns="http://www.w3.org/2000/svg"
   xmlns:sodipodi="http://sodipodi.sourceforge.net/DTD/sodipodi-0.dtd"
   xmlns:inkscape="http://www.inkscape.org/namespaces/inkscape"
   width="210mm"
   height="297mm"
   id="svg2"
   version="1.1"
   inkscape:version="0.48.3.1 r9886"
   sodipodi:docname="stars.svg"
   inkscape:export-xdpi="79.074844"
   inkscape:export-ydpi="79.074844">
  <defs
     id="defs4" />
  <sodipodi:namedview
     id="base"
     pagecolor="#ffffff"
     bordercolor="#666666"
     borderopacity="1.0"
     inkscape:pageopacity="0.0"
     inkscape:pageshadow="2"
     inkscape:zoom="0.49497475"
     inkscape:cx="186.04229"
     inkscape:cy="724.90208"
     inkscape:document-units="px"
     inkscape:current-layer="layer1"
     showgrid="false"
     inkscape:window-width="1280"
     inkscape:window-height="745"
     inkscape:window-x="0"
     inkscape:window-y="27"
     inkscape:window-maximized="1" />
  <metadata
     id="metadata7">
    <rdf:RDF>
      <cc:Work
         rdf:about="">
        <dc:format>image/svg+xml</dc:format>
        <dc:type
           rdf:resource="http://purl.org/dc/dcmitype/StillImage" />
        <dc:title></dc:title>
      </cc:Work>
    </rdf:RDF>
  </metadata>
  <g
     inkscape:label="Ebene 1"
     inkscape:groupmode="layer"
     id="layer1">
    <path
       style="fill:#eeee00;fill-opacity:1;stroke:none"
       inkscape:transform-center-x="0.44708968"
       inkscape:transform-center-y="-7.1955603"
       d="m 271.9653,386.65639 c -8.06912,7.27037 -61.39527,-30.8391 -61.39527,-30.8391 0,0 -50.00946,39.26829 -60.21044,33.09281 -10.20097,-6.17549 10.35755,-67.92018 10.35755,-67.92018 0,0 -53.07718,-35.3352 -50.07918,-47.03729 2.99801,-11.70209 67.79659,-11.13788 67.79659,-11.13788 0,0 16.1599,-62.14733 29.2598,-62.16344 13.0999,-0.0161 31.54305,61.03659 31.54305,61.03659 0,0 63.94929,-3.63816 68.16273,8.61816 4.21343,12.25631 -48.30191,48.86056 -48.30191,48.86056 0,0 20.9362,60.2194 12.86708,67.48977 z"
       id="path2987"
       inkscape:connector-curvature="0"
       sodipodi:nodetypes="zczczczczcz" />
    <path
       style="fill:#d7d7d7;fill-opacity:1;stroke:none"
       inkscape:transform-center-x="0.44709076"
       inkscape:transform-center-y="-7.1955618"
       d="m 530.36077,380.9483 c -8.06912,7.27037 -61.39528,-30.83909 -61.39528,-30.83909 0,0 -50.00945,39.26829 -60.21043,33.0928 -10.20098,-6.17549 10.35755,-67.92018 10.35755,-67.92018 0,0 -53.07718,-35.33519 -50.07918,-47.03728 2.998,-11.70209 67.79658,-11.13789 67.79658,-11.13789 0,0 16.1599,-62.14732 29.25981,-62.16344 13.0999,-0.0161 31.54305,61.03659 31.54305,61.03659 0,0 63.94928,-3.63815 68.16272,8.61816 4.21344,12.25632 -48.30191,48.86057 -48.30191,48.86057 0,0 20.9362,60.21939 12.86709,67.48976 z"
       id="path2987-4"
       inkscape:connector-curvature="0"
       sodipodi:nodetypes="zczczczczcz" />
  </g>
</svg>
